<svg width="25" height="24" viewBox="0 0 25 24" fill="none" xmlns="http://www.w3.org/2000/svg">
<path d="M6.03639 17.2254H17.3311V14.7646H6.03639V17.2254ZM4.15394 19.6862C3.63626 19.6862 3.1931 19.5255 2.82445 19.2043C2.45581 18.883 2.27148 18.4968 2.27148 18.0456V8.20253C2.27148 7.75139 2.45581 7.36518 2.82445 7.04391C3.1931 6.72265 3.63626 6.56201 4.15394 6.56201H19.2136C19.7312 6.56201 20.1744 6.72265 20.543 7.04391C20.9117 7.36518 21.096 7.75139 21.096 8.20253V18.0456C21.096 18.4968 20.9117 18.883 20.543 19.2043C20.1744 19.5255 19.7312 19.6862 19.2136 19.6862H4.15394ZM4.15394 18.0456H19.2136V8.20253H4.15394V18.0456Z" fill="black"/>
</svg>
