<svg width="24" height="30" viewBox="0 0 24 30" fill="none" xmlns="http://www.w3.org/2000/svg">
<path d="M3.73333 20.5417H14.9333V17.4167H3.73333V20.5417ZM1.86667 23.6667C1.35333 23.6667 0.913889 23.4627 0.548333 23.0547C0.182778 22.6467 0 22.1562 0 21.5833V9.08333C0 8.51042 0.182778 8.01997 0.548333 7.61198C0.913889 7.20399 1.35333 7 1.86667 7H16.8C17.3133 7 17.7528 7.20399 18.1183 7.61198C18.4839 8.01997 18.6667 8.51042 18.6667 9.08333V21.5833C18.6667 22.1562 18.4839 22.6467 18.1183 23.0547C17.7528 23.4627 17.3133 23.6667 16.8 23.6667H1.86667ZM1.86667 21.5833H16.8V9.08333H1.86667V21.5833Z" fill="black"/>
</svg>
