<svg width="24" height="24" viewBox="0 0 24 24" fill="none" xmlns="http://www.w3.org/2000/svg">
<path d="M5.73333 17.2254H16.9333V14.7646H5.73333V17.2254ZM3.86667 19.6862C3.35333 19.6862 2.91389 19.5255 2.54833 19.2043C2.18278 18.883 2 18.4968 2 18.0456V8.20253C2 7.75139 2.18278 7.36518 2.54833 7.04391C2.91389 6.72265 3.35333 6.56201 3.86667 6.56201H18.8C19.3133 6.56201 19.7528 6.72265 20.1183 7.04391C20.4839 7.36518 20.6667 7.75139 20.6667 8.20253V18.0456C20.6667 18.4968 20.4839 18.883 20.1183 19.2043C19.7528 19.5255 19.3133 19.6862 18.8 19.6862H3.86667ZM3.86667 18.0456H18.8V8.20253H3.86667V18.0456Z" fill="black"/>
</svg>
