<svg width="24" height="30" viewBox="0 0 24 30" fill="none" xmlns="http://www.w3.org/2000/svg">
<path d="M5.73333 21.8749H16.9333V18.7499H5.73333V21.8749ZM3.86667 24.9999C3.35333 24.9999 2.91389 24.7959 2.54833 24.3879C2.18278 23.98 2 23.4895 2 22.9166V10.4166C2 9.84367 2.18278 9.35322 2.54833 8.94523C2.91389 8.53724 3.35333 8.33325 3.86667 8.33325H18.8C19.3133 8.33325 19.7528 8.53724 20.1183 8.94523C20.4839 9.35322 20.6667 9.84367 20.6667 10.4166V22.9166C20.6667 23.4895 20.4839 23.98 20.1183 24.3879C19.7528 24.7959 19.3133 24.9999 18.8 24.9999H3.86667ZM3.86667 22.9166H18.8V10.4166H3.86667V22.9166Z" fill="black"/>
</svg>
