<svg width="37" height="59" viewBox="0 0 37 59" fill="none" xmlns="http://www.w3.org/2000/svg">
<path d="M9.09907 41.7841H27.2967V34.4676H9.09907V41.7841ZM6.06614 49.1007C5.23208 49.1007 4.51808 48.6231 3.92413 47.6679C3.33018 46.7126 3.0332 45.5644 3.0332 44.223V14.9568C3.0332 13.6154 3.33018 12.4671 3.92413 11.5119C4.51808 10.5567 5.23208 10.0791 6.06614 10.0791H30.3296C31.1637 10.0791 31.8777 10.5567 32.4716 11.5119C33.0656 12.4671 33.3625 13.6154 33.3625 14.9568V44.223C33.3625 45.5644 33.0656 46.7126 32.4716 47.6679C31.8777 48.6231 31.1637 49.1007 30.3296 49.1007H6.06614ZM6.06614 44.223H30.3296V14.9568H6.06614V44.223Z" fill="black"/>
</svg>
