<svg width="24" height="27" viewBox="0 0 24 27" fill="none" xmlns="http://www.w3.org/2000/svg">
<path d="M5.73333 19.1568H16.9333V16.5185H5.73333V19.1568ZM3.86667 21.7952C3.35333 21.7952 2.91389 21.6229 2.54833 21.2785C2.18278 20.934 2 20.52 2 20.0363V9.483C2 8.99931 2.18278 8.58524 2.54833 8.24079C2.91389 7.89634 3.35333 7.72412 3.86667 7.72412H18.8C19.3133 7.72412 19.7528 7.89634 20.1183 8.24079C20.4839 8.58524 20.6667 8.99931 20.6667 9.483V20.0363C20.6667 20.52 20.4839 20.934 20.1183 21.2785C19.7528 21.6229 19.3133 21.7952 18.8 21.7952H3.86667ZM3.86667 20.0363H18.8V9.483H3.86667V20.0363Z" fill="black"/>
</svg>
