<svg width="25" height="24" viewBox="0 0 25 24" fill="none" xmlns="http://www.w3.org/2000/svg">
<g clip-path="url(#clip0_1205_1166)">
<path d="M4.52858 16.1756H15.8233V13.7148H4.52858V16.1756ZM2.64612 18.6364C2.12845 18.6364 1.68529 18.4757 1.31664 18.1545C0.947995 17.8332 0.763672 17.447 0.763672 16.9958V7.15273C0.763672 6.70158 0.947995 6.31538 1.31664 5.99411C1.68529 5.67284 2.12845 5.51221 2.64612 5.51221H17.7057C18.2234 5.51221 18.6666 5.67284 19.0352 5.99411C19.4039 6.31538 19.5882 6.70158 19.5882 7.15273V16.9958C19.5882 17.447 19.4039 17.8332 19.0352 18.1545C18.6666 18.4757 18.2234 18.6364 17.7057 18.6364H2.64612ZM2.64612 16.9958H17.7057V7.15273H2.64612V16.9958Z" fill="black"/>
</g>
<defs>
<clipPath id="clip0_1205_1166">
<rect width="24.203" height="23.6235" fill="white" transform="translate(0.763672)"/>
</clipPath>
</defs>
</svg>
