<svg width="24" height="30" viewBox="0 0 24 30" fill="none" xmlns="http://www.w3.org/2000/svg">
<path d="M5.73333 21.8752H16.9333V18.7502H5.73333V21.8752ZM3.86667 25.0002C3.35333 25.0002 2.91389 24.7962 2.54833 24.3882C2.18278 23.9802 2 23.4897 2 22.9168V10.4168C2 9.84391 2.18278 9.35346 2.54833 8.94548C2.91389 8.53749 3.35333 8.3335 3.86667 8.3335H18.8C19.3133 8.3335 19.7528 8.53749 20.1183 8.94548C20.4839 9.35346 20.6667 9.84391 20.6667 10.4168V22.9168C20.6667 23.4897 20.4839 23.9802 20.1183 24.3882C19.7528 24.7962 19.3133 25.0002 18.8 25.0002H3.86667ZM3.86667 22.9168H18.8V10.4168H3.86667V22.9168Z" fill="black"/>
</svg>
