<svg width="24" height="24" viewBox="0 0 24 24" fill="none" xmlns="http://www.w3.org/2000/svg">
<path d="M3.73333 16.1756H14.9333V13.7148H3.73333V16.1756ZM1.86667 18.6364C1.35333 18.6364 0.913889 18.4757 0.548333 18.1545C0.182778 17.8332 0 17.447 0 16.9958V7.15273C0 6.70158 0.182778 6.31538 0.548333 5.99411C0.913889 5.67284 1.35333 5.51221 1.86667 5.51221H16.8C17.3133 5.51221 17.7528 5.67284 18.1183 5.99411C18.4839 6.31538 18.6667 6.70158 18.6667 7.15273V16.9958C18.6667 17.447 18.4839 17.8332 18.1183 18.1545C17.7528 18.4757 17.3133 18.6364 16.8 18.6364H1.86667ZM1.86667 16.9958H16.8V7.15273H1.86667V16.9958Z" fill="black"/>
</svg>
