<svg width="25" height="20" viewBox="0 0 25 20" fill="none" xmlns="http://www.w3.org/2000/svg">
<path d="M12.4993 12.5002C13.3674 12.5002 14.1053 12.2571 14.7129 11.771C15.3205 11.2849 15.6243 10.6946 15.6243 10.0002C15.6243 9.30572 15.3205 8.71544 14.7129 8.22933C14.1053 7.74322 13.3674 7.50016 12.4993 7.50016C11.6313 7.50016 10.8934 7.74322 10.2858 8.22933C9.67817 8.71544 9.37435 9.30572 9.37435 10.0002C9.37435 10.6946 9.67817 11.2849 10.2858 11.771C10.8934 12.2571 11.6313 12.5002 12.4993 12.5002ZM12.4993 14.1668C11.0584 14.1668 9.83008 13.7606 8.81445 12.9481C7.79883 12.1356 7.29102 11.1529 7.29102 10.0002C7.29102 8.84738 7.79883 7.86475 8.81445 7.05225C9.83008 6.23975 11.0584 5.8335 12.4993 5.8335C13.9403 5.8335 15.1686 6.23975 16.1842 7.05225C17.1999 7.86475 17.7077 8.84738 17.7077 10.0002C17.7077 11.1529 17.1999 12.1356 16.1842 12.9481C15.1686 13.7606 13.9403 14.1668 12.4993 14.1668ZM5.20768 10.8335H1.04102V9.16683H5.20768V10.8335ZM23.9577 10.8335H19.791V9.16683H23.9577V10.8335ZM11.4577 4.16683V0.833496H13.541V4.16683H11.4577ZM11.4577 19.1668V15.8335H13.541V19.1668H11.4577ZM6.66602 6.4585L4.03581 4.43766L5.52018 3.2085L8.02018 5.29183L6.66602 6.4585ZM19.4785 16.7918L16.9525 14.6877L18.3327 13.5418L20.9629 15.5627L19.4785 16.7918ZM16.9264 5.3335L19.4525 3.22933L20.9889 4.41683L18.3848 6.41683L16.9264 5.3335ZM4.00977 15.5835L6.63997 13.5627L8.07227 14.6668L5.54622 16.771L4.00977 15.5835Z" fill="#1D1B20"/>
</svg>
