<svg width="52" height="52" viewBox="0 0 52 52" fill="none" xmlns="http://www.w3.org/2000/svg">
<path d="M25.9993 32.4998C27.8049 32.4998 29.3396 31.8679 30.6035 30.604C31.8674 29.3401 32.4993 27.8054 32.4993 25.9998C32.4993 24.1943 31.8674 22.6596 30.6035 21.3957C29.3396 20.1318 27.8049 19.4998 25.9993 19.4998C24.1938 19.4998 22.6591 20.1318 21.3952 21.3957C20.1313 22.6596 19.4993 24.1943 19.4993 25.9998C19.4993 27.8054 20.1313 29.3401 21.3952 30.604C22.6591 31.8679 24.1938 32.4998 25.9993 32.4998ZM25.9993 36.8332C23.0021 36.8332 20.4473 35.7769 18.3348 33.6644C16.2223 31.5519 15.166 28.9971 15.166 25.9998C15.166 23.0026 16.2223 20.4478 18.3348 18.3353C20.4473 16.2228 23.0021 15.1665 25.9993 15.1665C28.9966 15.1665 31.5514 16.2228 33.6639 18.3353C35.7764 20.4478 36.8327 23.0026 36.8327 25.9998C36.8327 28.9971 35.7764 31.5519 33.6639 33.6644C31.5514 35.7769 28.9966 36.8332 25.9993 36.8332ZM10.8327 28.1665H2.16602V23.8332H10.8327V28.1665ZM49.8327 28.1665H41.166V23.8332H49.8327V28.1665ZM23.8327 10.8332V2.1665H28.166V10.8332H23.8327ZM23.8327 49.8332V41.1665H28.166V49.8332H23.8327ZM13.866 16.7915L8.39518 11.5373L11.4827 8.3415L16.6827 13.7582L13.866 16.7915ZM40.516 43.6582L35.2618 38.1873L38.1327 35.2082L43.6035 40.4623L40.516 43.6582ZM35.2077 13.8665L40.4618 8.39567L43.6577 11.4832L38.241 16.6832L35.2077 13.8665ZM8.34102 40.5165L13.8118 35.2623L16.791 38.1332L11.5368 43.604L8.34102 40.5165Z" fill="#1D1B20"/>
</svg>
