<svg width="52" height="52" viewBox="0 0 52 52" fill="none" xmlns="http://www.w3.org/2000/svg">
<path d="M25.9993 32.5001C27.8049 32.5001 29.3396 31.8681 30.6035 30.6042C31.8674 29.3404 32.4993 27.8056 32.4993 26.0001C32.4993 24.1945 31.8674 22.6598 30.6035 21.3959C29.3396 20.132 27.8049 19.5001 25.9993 19.5001C24.1938 19.5001 22.6591 20.132 21.3952 21.3959C20.1313 22.6598 19.4993 24.1945 19.4993 26.0001C19.4993 27.8056 20.1313 29.3404 21.3952 30.6042C22.6591 31.8681 24.1938 32.5001 25.9993 32.5001ZM25.9993 36.8334C23.0021 36.8334 20.4473 35.7772 18.3348 33.6647C16.2223 31.5522 15.166 28.9973 15.166 26.0001C15.166 23.0029 16.2223 20.448 18.3348 18.3355C20.4473 16.223 23.0021 15.1667 25.9993 15.1667C28.9966 15.1667 31.5514 16.223 33.6639 18.3355C35.7764 20.448 36.8327 23.0029 36.8327 26.0001C36.8327 28.9973 35.7764 31.5522 33.6639 33.6647C31.5514 35.7772 28.9966 36.8334 25.9993 36.8334ZM10.8327 28.1667H2.16602V23.8334H10.8327V28.1667ZM49.8327 28.1667H41.166V23.8334H49.8327V28.1667ZM23.8327 10.8334V2.16675H28.166V10.8334H23.8327ZM23.8327 49.8334V41.1667H28.166V49.8334H23.8327ZM13.866 16.7917L8.39518 11.5376L11.4827 8.34175L16.6827 13.7584L13.866 16.7917ZM40.516 43.6584L35.2618 38.1876L38.1327 35.2084L43.6035 40.4626L40.516 43.6584ZM35.2077 13.8667L40.4618 8.39591L43.6577 11.4834L38.241 16.6834L35.2077 13.8667ZM8.34102 40.5167L13.8118 35.2626L16.791 38.1334L11.5368 43.6042L8.34102 40.5167Z" fill="#1D1B20"/>
</svg>
