<svg width="24" height="24" viewBox="0 0 24 24" fill="none" xmlns="http://www.w3.org/2000/svg">
<path d="M21.3759 16.406C21.2903 16.4549 21.1958 16.4863 21.098 16.4986C21.0001 16.511 20.9008 16.5038 20.8057 16.4777C20.7106 16.4516 20.6216 16.407 20.5438 16.3464C20.466 16.2858 20.4009 16.2105 20.3522 16.1248L18.5709 13.0123C17.5354 13.7125 16.393 14.24 15.1884 14.5741L15.7387 17.876C15.755 17.9732 15.7519 18.0727 15.7297 18.1687C15.7075 18.2647 15.6665 18.3554 15.6092 18.4356C15.552 18.5158 15.4794 18.5839 15.3958 18.636C15.3122 18.6882 15.2191 18.7233 15.1219 18.7395C15.0819 18.746 15.0414 18.7495 15.0009 18.7498C14.8235 18.7495 14.6519 18.6863 14.5167 18.5715C14.3814 18.4567 14.2912 18.2976 14.2622 18.1226L13.7212 14.8807C12.5805 15.0395 11.4232 15.0395 10.2825 14.8807L9.74155 18.1226C9.71245 18.2979 9.62201 18.4573 9.48636 18.5721C9.35071 18.687 9.17868 18.75 9.00093 18.7498C8.95947 18.7496 8.91809 18.7462 8.87718 18.7395C8.77996 18.7233 8.68688 18.6882 8.60325 18.636C8.51962 18.5839 8.44709 18.5158 8.3898 18.4356C8.33251 18.3554 8.29158 18.2647 8.26937 18.1687C8.24715 18.0727 8.24407 17.9732 8.2603 17.876L8.81343 14.5741C7.60933 14.2389 6.46762 13.7105 5.4328 13.0095L3.65718 16.1248C3.60793 16.2106 3.54227 16.2859 3.46393 16.3463C3.3856 16.4067 3.29613 16.4511 3.20063 16.477C3.10513 16.5028 3.00547 16.5096 2.90735 16.497C2.80922 16.4843 2.71455 16.4525 2.62874 16.4032C2.54293 16.354 2.46766 16.2883 2.40723 16.21C2.34679 16.1316 2.30238 16.0422 2.27653 15.9467C2.25067 15.8512 2.24388 15.7515 2.25654 15.6534C2.2692 15.5553 2.30106 15.4606 2.3503 15.3748L4.2253 12.0935C3.56671 11.5245 2.9611 10.897 2.41593 10.2185C2.34794 10.1426 2.29613 10.0536 2.26367 9.95704C2.23121 9.86045 2.21878 9.75824 2.22713 9.65668C2.23548 9.55512 2.26445 9.45632 2.31225 9.36632C2.36005 9.27633 2.4257 9.19701 2.50517 9.13323C2.58465 9.06944 2.67629 9.02252 2.7745 8.99533C2.87271 8.96815 2.97544 8.96126 3.0764 8.97509C3.17736 8.98892 3.27445 9.02318 3.36173 9.07578C3.44901 9.12838 3.52466 9.19821 3.58405 9.28102C5.1403 11.2066 7.8628 13.4998 12.0009 13.4998C16.1391 13.4998 18.8616 11.2038 20.4178 9.28102C20.4765 9.19652 20.552 9.125 20.6395 9.07092C20.7271 9.01684 20.8248 8.98135 20.9267 8.96666C21.0285 8.95198 21.1323 8.9584 21.2315 8.98555C21.3308 9.01269 21.4234 9.05997 21.5036 9.12443C21.5838 9.1889 21.6499 9.26919 21.6977 9.36029C21.7456 9.45139 21.7742 9.55137 21.7817 9.65399C21.7892 9.75661 21.7756 9.85969 21.7416 9.95681C21.7076 10.0539 21.654 10.143 21.5841 10.2185C21.0389 10.897 20.4333 11.5245 19.7747 12.0935L21.6497 15.3748C21.7 15.4603 21.7329 15.555 21.7463 15.6533C21.7598 15.7516 21.7537 15.8517 21.7282 15.9476C21.7027 16.0435 21.6585 16.1334 21.598 16.2121C21.5375 16.2908 21.4621 16.3567 21.3759 16.406Z" fill="black"/>
</svg>
