<svg width="24" height="24" viewBox="0 0 24 24" fill="none" xmlns="http://www.w3.org/2000/svg">
<g clip-path="url(#clip0_1142_2005)">
<path d="M2.67257 6.80571L0 4.12971M7.75714 3.52286L6.66857 0M19.236 6.80571L21.9086 4.13143M14.1514 3.52286L15.24 0M10.9543 3.05486C3.77657 3.05486 0.762857 9.51086 0.762857 9.64457C0.762857 9.77829 3.77657 16.2326 10.9543 16.2326C18.132 16.2326 21.1457 9.77829 21.1457 9.64457C21.1457 9.51086 18.132 3.05486 10.9543 3.05486Z" stroke="black" stroke-linecap="round" stroke-linejoin="round"/>
<path d="M8.05047 8.97943C7.95766 9.36273 7.94188 9.76063 8.00402 10.1501C8.06617 10.5395 8.20501 10.9128 8.4125 11.2481C8.61999 11.5835 8.892 11.8744 9.21275 12.1038C9.5335 12.3333 9.89661 12.4967 10.281 12.5848C10.6654 12.6728 11.0635 12.6837 11.4522 12.6167C11.8408 12.5498 12.2123 12.4063 12.5451 12.1947C12.8778 11.983 13.1653 11.7074 13.3908 11.3839C13.6162 11.0603 13.7752 10.6952 13.8585 10.3097C13.9513 9.92642 13.9671 9.52851 13.9049 9.13907C13.8428 8.74962 13.7039 8.37639 13.4964 8.04102C13.2889 7.70564 13.0169 7.4148 12.6962 7.18535C12.3754 6.95589 12.0123 6.7924 11.6279 6.70436C11.2435 6.61631 10.8454 6.60545 10.4568 6.67242C10.0681 6.73939 9.69665 6.88285 9.36387 7.09448C9.03109 7.30611 8.74364 7.5817 8.51818 7.90527C8.29272 8.22884 8.13375 8.59395 8.05047 8.97943Z" stroke="black" stroke-linecap="round" stroke-linejoin="round"/>
</g>
<defs>
<clipPath id="clip0_1142_2005">
<rect width="24" height="24" fill="white"/>
</clipPath>
</defs>
</svg>
