<svg width="24" height="24" viewBox="0 0 24 24" fill="none" xmlns="http://www.w3.org/2000/svg">
<path d="M21.3759 16.4063C21.2903 16.4551 21.1958 16.4866 21.098 16.4989C21.0001 16.5112 20.9008 16.5041 20.8057 16.478C20.7106 16.4518 20.6216 16.4072 20.5438 16.3467C20.466 16.2861 20.4009 16.2108 20.3522 16.125L18.5709 13.0125C17.5354 13.7127 16.393 14.2402 15.1884 14.5744L15.7387 17.8763C15.755 17.9735 15.7519 18.0729 15.7297 18.1689C15.7075 18.2649 15.6665 18.3556 15.6092 18.4358C15.552 18.516 15.4794 18.5841 15.3958 18.6363C15.3122 18.6884 15.2191 18.7236 15.1219 18.7397C15.0819 18.7462 15.0414 18.7497 15.0009 18.75C14.8235 18.7498 14.6519 18.6866 14.5167 18.5718C14.3814 18.4569 14.2912 18.2979 14.2622 18.1228L13.7212 14.881C12.5805 15.0397 11.4232 15.0397 10.2825 14.881L9.74155 18.1228C9.71245 18.2982 9.62201 18.4575 9.48636 18.5724C9.35071 18.6872 9.17868 18.7502 9.00093 18.75C8.95947 18.7498 8.91809 18.7464 8.87718 18.7397C8.77996 18.7236 8.68688 18.6884 8.60325 18.6363C8.51962 18.5841 8.44709 18.516 8.3898 18.4358C8.33251 18.3556 8.29158 18.2649 8.26937 18.1689C8.24715 18.0729 8.24407 17.9735 8.2603 17.8763L8.81343 14.5744C7.60933 14.2391 6.46762 13.7107 5.4328 13.0097L3.65718 16.125C3.60793 16.2108 3.54227 16.2861 3.46393 16.3465C3.3856 16.407 3.29613 16.4514 3.20063 16.4772C3.10513 16.5031 3.00547 16.5099 2.90735 16.4972C2.80922 16.4846 2.71455 16.4527 2.62874 16.4035C2.54293 16.3542 2.46766 16.2885 2.40723 16.2102C2.34679 16.1319 2.30238 16.0424 2.27653 15.9469C2.25067 15.8514 2.24388 15.7517 2.25654 15.6536C2.2692 15.5555 2.30106 15.4608 2.3503 15.375L4.2253 12.0938C3.56671 11.5248 2.9611 10.8972 2.41593 10.2188C2.34794 10.1429 2.29613 10.0539 2.26367 9.95729C2.23121 9.86069 2.21878 9.75849 2.22713 9.65693C2.23548 9.55536 2.26445 9.45657 2.31225 9.36657C2.36005 9.27657 2.4257 9.19726 2.50517 9.13347C2.58465 9.06969 2.67629 9.02277 2.7745 8.99558C2.87271 8.96839 2.97544 8.9615 3.0764 8.97533C3.17736 8.98916 3.27445 9.02342 3.36173 9.07602C3.44901 9.12862 3.52466 9.19846 3.58405 9.28127C5.1403 11.2069 7.8628 13.5 12.0009 13.5C16.1391 13.5 18.8616 11.2041 20.4178 9.28127C20.4765 9.19676 20.552 9.12525 20.6395 9.07117C20.7271 9.01708 20.8248 8.9816 20.9267 8.96691C21.0285 8.95222 21.1323 8.95865 21.2315 8.98579C21.3308 9.01293 21.4234 9.06021 21.5036 9.12468C21.5838 9.18915 21.6499 9.26943 21.6977 9.36054C21.7456 9.45164 21.7742 9.55161 21.7817 9.65423C21.7892 9.75686 21.7756 9.85993 21.7416 9.95706C21.7076 10.0542 21.654 10.1433 21.5841 10.2188C21.0389 10.8972 20.4333 11.5248 19.7747 12.0938L21.6497 15.375C21.7 15.4606 21.7329 15.5552 21.7463 15.6535C21.7598 15.7519 21.7537 15.8519 21.7282 15.9478C21.7027 16.0437 21.6585 16.1337 21.598 16.2123C21.5375 16.291 21.4621 16.357 21.3759 16.4063Z" fill="black"/>
</svg>
