<svg width="50" height="50" viewBox="0 0 50 50" fill="none" xmlns="http://www.w3.org/2000/svg">
<path d="M43.6201 27.38L43.5806 27.6683L43.8117 27.8451L49.193 31.9597L49.1991 31.9644L49.2054 31.9689C49.4924 32.1746 49.5858 32.5379 49.3846 32.9015L44.2479 41.5414L44.2477 41.5413L44.2416 41.5523C44.0511 41.8919 43.6505 42.0315 43.2716 41.9008L36.8815 39.4041L36.6213 39.3024L36.3984 39.4706C35.12 40.435 33.7133 41.2454 32.1784 41.8528L31.9093 41.9593L31.8676 42.2456L30.9038 48.8602L30.9037 48.8602L30.9027 48.8686C30.8568 49.2253 30.5508 49.5 30.1403 49.5H19.8597C19.4745 49.5 19.1592 49.2451 19.0668 48.8422L18.1056 42.2456L18.0639 41.9593L17.7948 41.8528C16.2624 41.2464 14.8811 40.4363 13.5709 39.4677L13.3489 39.3036L13.0918 39.4041L6.71162 41.8969C6.30613 42.0157 5.9127 41.8751 5.73168 41.5523L5.73182 41.5522L5.72535 41.5414L0.588224 32.9008C0.416495 32.5921 0.503073 32.1694 0.778218 31.9612L0.778352 31.9611L6.21313 27.8466L6.45548 27.6631L6.40415 27.3635C6.27634 26.6175 6.22393 25.7877 6.22393 25C6.22393 24.2328 6.32609 23.4046 6.45769 22.6365L6.50903 22.3369L6.26668 22.1534L0.831897 18.0389L0.821883 18.0313L0.811501 18.0242C0.519065 17.8251 0.436077 17.45 0.639507 17.103C0.63965 17.1027 0.639794 17.1025 0.639938 17.1022L5.7527 8.45766L5.75282 8.45773L5.75845 8.44768C5.94886 8.10812 6.34943 7.96853 6.72833 8.0992L13.1185 10.5959L13.3748 10.696L13.5965 10.5332C14.882 9.58897 16.2903 8.7531 17.8216 8.14722L18.0907 8.04075L18.1324 7.75438L19.0952 1.14666C19.164 0.75896 19.4684 0.5 19.8597 0.5H30.1403C30.5443 0.5 30.8647 0.771423 30.9316 1.14673L31.8944 7.75438L31.9361 8.04075L32.2052 8.14722C33.7376 8.75356 35.1189 9.5637 36.429 10.5323L36.6511 10.6964L36.9082 10.5959L43.2884 8.10312C43.6939 7.98425 44.0873 8.12487 44.2683 8.44768L44.2682 8.44776L44.2747 8.45864L49.4118 17.0991C49.5835 17.4079 49.4969 17.8306 49.2218 18.0388L49.2216 18.0389L43.7869 22.1534L43.5445 22.3369L43.5959 22.6365C43.7237 23.3828 43.7761 24.1867 43.7761 25C43.7761 25.8383 43.7239 26.6228 43.6201 27.38ZM14.862 25C14.862 30.4453 19.4361 34.875 25 34.875C30.5639 34.875 35.138 30.4453 35.138 25C35.138 19.5547 30.5639 15.125 25 15.125C19.4361 15.125 14.862 19.5547 14.862 25Z" fill="#6D6E71" stroke="#D9D9D9"/>
</svg>
