<svg width="24" height="24" viewBox="0 0 24 24" fill="none" xmlns="http://www.w3.org/2000/svg">
<g style="mix-blend-mode:color-burn">
<path d="M3.71749 9.96538L1.04492 7.28938M8.80206 6.68252L7.71349 3.15967M20.2809 9.96538L22.9535 7.2911M15.1964 6.68252L16.2849 3.15967M11.9992 6.21452C4.82149 6.21452 1.80778 12.6705 1.80778 12.8042C1.80778 12.938 4.82149 19.3922 11.9992 19.3922C19.1769 19.3922 22.1906 12.938 22.1906 12.8042C22.1906 12.6705 19.1769 6.21452 11.9992 6.21452Z" stroke="black" stroke-linecap="round" stroke-linejoin="round"/>
<path d="M9.09539 12.1389C9.00259 12.5222 8.9868 12.9201 9.04894 13.3095C9.11109 13.6989 9.24994 14.0722 9.45743 14.4076C9.66492 14.7429 9.93692 15.0338 10.2577 15.2632C10.5784 15.4927 10.9415 15.6562 11.326 15.7442C11.7104 15.8323 12.1084 15.8431 12.4971 15.7761C12.8857 15.7092 13.2572 15.5657 13.59 15.3541C13.9228 15.1425 14.2102 14.8669 14.4357 14.5433C14.6611 14.2197 14.8201 13.8546 14.9034 13.4691C14.9962 13.0858 15.012 12.6879 14.9498 12.2985C14.8877 11.909 14.7488 11.5358 14.5414 11.2004C14.3339 10.8651 14.0619 10.5742 13.7411 10.3448C13.4204 10.1153 13.0572 9.95183 12.6728 9.86378C12.2884 9.77573 11.8903 9.76488 11.5017 9.83185C11.1131 9.89881 10.7416 10.0423 10.4088 10.2539C10.076 10.4655 9.78856 10.7411 9.5631 11.0647C9.33765 11.3883 9.17867 11.7534 9.09539 12.1389Z" stroke="black" stroke-linecap="round" stroke-linejoin="round"/>
</g>
</svg>
