<svg width="50" height="44" viewBox="0 0 50 44" fill="none" xmlns="http://www.w3.org/2000/svg">
<path d="M5.55556 44C4.02778 44 2.71991 43.4615 1.63194 42.3844C0.543982 41.3073 0 40.0125 0 38.5C0 36.9875 0.543982 35.6927 1.63194 34.6156C2.71991 33.5385 4.02778 33 5.55556 33C7.08333 33 8.3912 33.5385 9.47917 34.6156C10.5671 35.6927 11.1111 36.9875 11.1111 38.5C11.1111 40.0125 10.5671 41.3073 9.47917 42.3844C8.3912 43.4615 7.08333 44 5.55556 44ZM5.55556 27.5C4.02778 27.5 2.71991 26.9615 1.63194 25.8844C0.543982 24.8073 0 23.5125 0 22C0 20.4875 0.543982 19.1927 1.63194 18.1156C2.71991 17.0385 4.02778 16.5 5.55556 16.5C7.08333 16.5 8.3912 17.0385 9.47917 18.1156C10.5671 19.1927 11.1111 20.4875 11.1111 22C11.1111 23.5125 10.5671 24.8073 9.47917 25.8844C8.3912 26.9615 7.08333 27.5 5.55556 27.5ZM5.55556 11C4.02778 11 2.71991 10.4615 1.63194 9.38438C0.543982 8.30729 0 7.0125 0 5.5C0 3.9875 0.543982 2.69271 1.63194 1.61563C2.71991 0.538542 4.02778 0 5.55556 0C7.08333 0 8.3912 0.538542 9.47917 1.61563C10.5671 2.69271 11.1111 3.9875 11.1111 5.5C11.1111 7.0125 10.5671 8.30729 9.47917 9.38438C8.3912 10.4615 7.08333 11 5.55556 11ZM22.2222 11C20.6944 11 19.3866 10.4615 18.2986 9.38438C17.2106 8.30729 16.6667 7.0125 16.6667 5.5C16.6667 3.9875 17.2106 2.69271 18.2986 1.61563C19.3866 0.538542 20.6944 0 22.2222 0C23.75 0 25.0579 0.538542 26.1458 1.61563C27.2338 2.69271 27.7778 3.9875 27.7778 5.5C27.7778 7.0125 27.2338 8.30729 26.1458 9.38438C25.0579 10.4615 23.75 11 22.2222 11ZM38.8889 11C37.3611 11 36.0532 10.4615 34.9653 9.38438C33.8773 8.30729 33.3333 7.0125 33.3333 5.5C33.3333 3.9875 33.8773 2.69271 34.9653 1.61563C36.0532 0.538542 37.3611 0 38.8889 0C40.4167 0 41.7245 0.538542 42.8125 1.61563C43.9005 2.69271 44.4444 3.9875 44.4444 5.5C44.4444 7.0125 43.9005 8.30729 42.8125 9.38438C41.7245 10.4615 40.4167 11 38.8889 11ZM22.2222 27.5C20.6944 27.5 19.3866 26.9615 18.2986 25.8844C17.2106 24.8073 16.6667 23.5125 16.6667 22C16.6667 20.4875 17.2106 19.1927 18.2986 18.1156C19.3866 17.0385 20.6944 16.5 22.2222 16.5C23.75 16.5 25.0579 17.0385 26.1458 18.1156C27.2338 19.1927 27.7778 20.4875 27.7778 22C27.7778 23.5125 27.2338 24.8073 26.1458 25.8844C25.0579 26.9615 23.75 27.5 22.2222 27.5ZM25 44V35.5438L40.3472 20.4188C40.7639 20.0063 41.2269 19.7083 41.7361 19.525C42.2454 19.3417 42.7546 19.25 43.2639 19.25C43.8194 19.25 44.3518 19.3531 44.8611 19.5594C45.3704 19.7656 45.8333 20.075 46.25 20.4875L48.8194 23.0312C49.1898 23.4438 49.4792 23.9021 49.6875 24.4062C49.8958 24.9104 50 25.4146 50 25.9188C50 26.4229 49.9074 26.9385 49.7222 27.4656C49.537 27.9927 49.2361 28.4625 48.8194 28.875L33.5417 44H25ZM29.1667 39.875H31.8056L40.2083 31.4875L38.9583 30.1813L37.6389 28.9438L29.1667 37.2625V39.875ZM38.9583 30.1813L37.6389 28.9438L40.2083 31.4875L38.9583 30.1813Z" fill="white"/>
</svg>
